HIERARCHY
ROOT RootJoint
{
    OFFSET   0.000000   0.000000   0.000000
    CHANNELS 6 Xposition Yposition Zposition Xrotation Yrotation Zrotation
    JOINT pelvis_lowerback
    {
        OFFSET   0.000000   0.093605   0.000000
        CHANNELS 3 Xrotation Yrotation Zrotation
        JOINT lowerback_torso
        {
            OFFSET   0.000000   0.100000   0.000000
            CHANNELS 3 Xrotation Yrotation Zrotation
            JOINT torso_head
            {
                OFFSET   0.000000   0.282350   0.000000
                CHANNELS 3 Xrotation Yrotation Zrotation
                End Site
                {
                    OFFSET   0.000000   0.192650   0.000000
                }
            }
            JOINT rTorso_Clavicle
            {
                OFFSET  -0.001000   0.157500   0.000000
                CHANNELS 3 Xrotation Yrotation Zrotation
                JOINT rShoulder
                {
                    OFFSET  -0.117647   0.000000   0.000000
                    CHANNELS 3 Xrotation Yrotation Zrotation
                    JOINT rElbow
                    {
                        OFFSET  -0.245000   0.000000   0.000000
                        CHANNELS 3 Xrotation Yrotation Zrotation
                        JOINT rWrist
                        {
                            OFFSET  -0.240000   0.000000   0.000000
                            CHANNELS 3 Xrotation Yrotation Zrotation
                            End Site
                            {
                                OFFSET  -0.116353  -0.002500   0.000000
                            }
                        }
                    }
                }
            }
            JOINT lTorso_Clavicle
            {
                OFFSET   0.001000   0.157500   0.000000
                CHANNELS 3 Xrotation Yrotation Zrotation
                JOINT lShoulder
                {
                    OFFSET   0.117647   0.000000   0.000000
                    CHANNELS 3 Xrotation Yrotation Zrotation
                    JOINT lElbow
                    {
                        OFFSET   0.245000   0.000000   0.000000
                        CHANNELS 3 Xrotation Yrotation Zrotation
                        JOINT lWrist
                        {
                            OFFSET   0.240000   0.000000   0.000000
                            CHANNELS 3 Xrotation Yrotation Zrotation
                            End Site
                            {
                                OFFSET   0.116353  -0.002500   0.000000
                            }
                        }
                    }
                }
            }
        }
    }
    JOINT rHip
    {
        OFFSET  -0.100000  -0.051395   0.000000
        CHANNELS 3 Xrotation Yrotation Zrotation
        JOINT rKnee
        {
            OFFSET   0.000000  -0.410000   0.000000
            CHANNELS 3 Xrotation Yrotation Zrotation
            JOINT rAnkle
            {
                OFFSET   0.000000  -0.390000   0.000000
                CHANNELS 3 Xrotation Yrotation Zrotation
                JOINT rToeJoint
                {
                    OFFSET   0.000000  -0.050000   0.130000
                    CHANNELS 3 Xrotation Yrotation Zrotation
                    End Site
                    {
                        OFFSET  -0.010000   0.002000   0.060000
                    }
                }
            }
        }
    }
    JOINT lHip
    {
        OFFSET   0.100000  -0.051395   0.000000
        CHANNELS 3 Xrotation Yrotation Zrotation
        JOINT lKnee
        {
            OFFSET   0.000000  -0.410000   0.000000
            CHANNELS 3 Xrotation Yrotation Zrotation
            JOINT lAnkle
            {
                OFFSET   0.000000  -0.390000   0.000000
                CHANNELS 3 Xrotation Yrotation Zrotation
                JOINT lToeJoint
                {
                    OFFSET   0.000000  -0.050000   0.130000
                    CHANNELS 3 Xrotation Yrotation Zrotation
                    End Site
                    {
                        OFFSET   0.010000   0.002000   0.060000
                    }
                }
            }
        }
    }
}
MOTION
Frames: 8
Frame Time:   0.008333
 -2.368018   0.924268   5.114391  -8.105942 -34.507251   1.771584   7.230140  -3.242821  -0.556276   3.444719  -6.341986   2.109626   1.900004  -7.446465   4.653275   5.880967  -5.252951   6.780847  15.498258   4.431858  52.242581   0.001883  35.043654   0.022722   5.278883   4.273252  -3.325748   7.224062  -3.123928  -8.046635  11.870945 -19.328924 -51.438747   0.000239 -22.200509  -0.008054   7.736718  -2.287209  -0.244040  -1.941742  15.221743   2.425865  10.194873   0.000142  -0.007691   2.422636   8.183086  -7.090747  -2.567404   0.000413   0.001240 -15.504900  -1.333354   6.674648  61.010628   0.040057   0.027051  -1.572434   4.297220  -2.852399  -5.014025  -0.014130  -0.005179
 -2.368974   0.925429   5.119978  -8.306630 -36.726788   1.652048   7.239064  -3.121774  -0.623243   3.578411  -6.177911   2.123024   2.117929  -7.386280   4.683339   5.835254  -5.240083   6.800366  15.583738   4.761529  52.110593   0.001536  35.393859   0.022673   5.236340   4.197104  -3.369967   7.342930  -2.777370  -8.128145  11.973388 -18.872922 -51.491331   0.000345 -22.096353  -0.007484   7.582293  -2.299097  -0.056441  -1.860272  16.034274   2.305521  10.810061  -0.000095  -0.013739   2.418096   9.324328  -7.158097  -3.246776   0.000698   0.002299 -15.687801  -1.963577   6.913428  59.612250   0.057913   0.042406  -1.701114   4.632583  -2.517636  -4.905673  -0.013369  -0.005618
 -2.369964   0.926529   5.125471  -8.493485 -38.982976   1.503762   7.232094  -3.015781  -0.673263   3.708581  -6.010223   2.147896   2.330659  -7.331479   4.713110   5.776433  -5.221309   6.814974  15.649568   5.079005  51.983907   0.001153  35.729657   0.022711   5.196936   4.160099  -3.422757   7.481084  -2.427091  -8.208965  12.089205 -18.431601 -51.549755   0.000425 -21.991980  -0.007093   7.427481  -2.294022   0.137029  -1.846724  16.805560   2.219416  11.476942  -0.000488  -0.019660   2.439288  10.414511  -7.211924  -3.997929   0.001227   0.004110 -15.759817  -2.645046   7.190511  58.155996   0.073316   0.057274  -1.826773   4.947203  -2.200691  -4.784525  -0.012991  -0.006276
 -2.370942   0.927561   5.130876  -8.667858 -41.235666   1.348027   7.218116  -2.920377  -0.714917   3.828453  -5.850653   2.177008   2.529105  -7.281618   4.742206   5.717535  -5.202831   6.829209  15.707898   5.377349  51.865477   0.000798  36.045555   0.022607   5.159408   4.144600  -3.482223   7.622433  -2.091424  -8.285481  12.207448 -18.013455 -51.607461   0.000494 -21.890126  -0.006794   7.279289  -2.267804   0.308530  -1.850843  17.525513   2.131040  12.125917  -0.000937  -0.024442   2.458081  11.436713  -7.255683  -4.741117   0.001753   0.006332 -15.787850  -3.308585   7.485703  56.768565   0.083371   0.068828  -1.947476   5.241566  -1.903546  -4.671356  -0.012456  -0.006721
 -2.371892   0.928538   5.136198  -8.833565 -43.469707   1.189150   7.201733  -2.834386  -0.749832   3.939034  -5.702181   2.208390   2.713747  -7.235573   4.770187   5.662267  -5.186262   6.844290  15.762470   5.655814  51.755328   0.000489  36.340597   0.022308   5.123292   4.134969  -3.542696   7.758837  -1.775240  -8.357650  12.321743 -17.620699 -51.662196   0.000559 -21.792983  -0.006531   7.137426  -2.230178   0.464714  -1.859184  18.195989   2.030180  12.742482  -0.001375  -0.028009   2.471343  12.391376  -7.291494  -5.463648   0.002184   0.008701 -15.792011  -3.935882   7.784629  55.474521   0.088584   0.076897  -2.062520   5.516378  -1.625817  -4.568130  -0.011752  -0.006942
 -2.372812   0.929468   5.141439  -8.994524 -45.677214   1.025513   7.185438  -2.757829  -0.777792   4.042074  -5.565877   2.242020   2.885927  -7.192763   4.797007   5.611823  -5.172135   6.860193  15.814748   5.914978  51.653086   0.000230  36.615367   0.021828   5.088348   4.124401  -3.601180   7.886832  -1.479791  -8.425184  12.429278 -17.253477 -51.713159   0.000617 -21.701626  -0.006275   7.001510  -2.188852   0.612157  -1.868180  18.820465   1.915992  13.325148  -0.001766  -0.030508   2.481364  13.282058  -7.321477  -6.167957   0.002495   0.011069 -15.780403  -4.522765   8.078666  54.274018   0.090052   0.081940  -2.171889   5.772709  -1.366495  -4.474617  -0.010928  -0.006976
 -2.373640   0.930327   5.146611  -9.150220 -47.859440   0.872907   7.173718  -2.689377  -0.805897   4.137056  -5.441336   2.272107   3.045922  -7.152853   4.821855   5.564949  -5.159196   6.873567  15.864161   6.156513  51.557414   0.000014  36.871930   0.021208   5.054618   4.114243  -3.658073   8.003796  -1.205917  -8.486097  12.527882 -16.911774 -51.759913   0.000667 -21.617150  -0.006007   6.871173  -2.151448   0.754792  -1.891179  19.415949   1.801951  13.823371  -0.002117  -0.031338   2.494333  14.103736  -7.538378  -6.767460   0.001624   0.012674 -15.764437  -5.065623   8.343846  53.162469   0.088807   0.084571  -2.275683   6.011620  -1.124554  -4.390303  -0.010037  -0.006870
 -2.374577   0.931399   5.151709  -9.297883 -50.121718   0.689367   7.134108  -2.584993  -0.850641   4.221514  -5.332506   2.348693   3.253889  -7.021746   4.840133   5.537372  -5.133407   6.938767  15.779616   6.435276  51.411678  -0.000172  37.020655   0.019297   5.032673   3.994995  -3.674710   8.162134  -0.900658  -8.651234  12.579695 -16.384010 -51.768648   0.000662 -21.565420  -0.005339   6.774755  -2.177013   0.942984  -2.015271  19.825502   1.778304  14.448344  -0.003152  -0.035114   2.698552  14.754517  -7.892616  -7.771514   0.000471   0.019869 -15.541426  -5.717001   8.588598  51.905829   0.090696   0.091729  -2.244778   6.154172  -0.914189  -4.341906  -0.008789  -0.006362
